HIERARCHY
ROOT Hips
{
	OFFSET -3.958830 18.904000 13.208200
	CHANNELS 6 Xposition Yposition Zposition Zrotation Yrotation Xrotation 
	JOINT LHipJoint
	{
		OFFSET 0.000000 0.000000 0.000000
		CHANNELS 3 Zrotation Yrotation Xrotation
		JOINT LeftUpLeg
		{
			OFFSET 1.800000 -1.400000 0.085000
			CHANNELS 3 Zrotation Yrotation Xrotation
			JOINT LeftLeg
			{
				OFFSET 2.215000 -6.000000 0.000000
				CHANNELS 3 Zrotation Yrotation Xrotation
				JOINT LeftFoot
				{
					OFFSET 2.500000 -6.900000 0.000000
					CHANNELS 3 Zrotation Yrotation Xrotation
					JOINT LeftToeBase
					{
						OFFSET 0.200000 -0.500000 1.950000
						CHANNELS 3 Zrotation Yrotation Xrotation
						End Site
						{
							OFFSET 0.000000 0.000000 0.000000
						}
					}
				}
			}
		}
	}
	JOINT RHipJoint
	{
		OFFSET 0.000000 0.000000 0.000000
		CHANNELS 3 Zrotation Yrotation Xrotation
		JOINT RightUpLeg
		{
			OFFSET -1.800000 -1.400000 0.085000
			CHANNELS 3 Zrotation Yrotation Xrotation
			JOINT RightLeg
			{
				OFFSET -2.215000 -6.000000 0.000000
				CHANNELS 3 Zrotation Yrotation Xrotation
				JOINT RightFoot
				{
					OFFSET -2.500000 -6.900000 0.000000
					CHANNELS 3 Zrotation Yrotation Xrotation
					JOINT RightToeBase
					{
						OFFSET -0.200000 -0.500000 1.950000
						CHANNELS 3 Zrotation Yrotation Xrotation
						End Site
						{
							OFFSET 0.000000 0.000000 0.000000
						}
					}
				}
			}
		}
	}
	JOINT LowerBack
	{
		OFFSET 0.000000 0.000000 0.000000
		CHANNELS 3 Zrotation Yrotation Xrotation
		JOINT Spine
		{
			OFFSET -0.087000 1.940000 -0.288900
			CHANNELS 3 Zrotation Yrotation Xrotation
			JOINT Spine1
			{
				OFFSET 0.000000 1.950000 0.060000
				CHANNELS 3 Zrotation Yrotation Xrotation
				JOINT Neck
				{
					OFFSET 0.000000 0.000000 0.000000
					CHANNELS 3 Zrotation Yrotation Xrotation
					JOINT Neck1
					{
						OFFSET 0.000000 1.600000 0.340000
						CHANNELS 3 Zrotation Yrotation Xrotation
						JOINT Head
						{
							OFFSET 0.000000 1.667000 -0.240000
							CHANNELS 3 Zrotation Yrotation Xrotation
							End Site
							{
								OFFSET 0.000000 0.000000 0.000000
							}
						}
					}
				}
				JOINT LeftShoulder
				{
					OFFSET 0.000000 0.000000 0.000000
					CHANNELS 3 Zrotation Yrotation Xrotation
					JOINT LeftArm
					{
						OFFSET 2.700000 1.550000 -0.730000
						CHANNELS 3 Zrotation Yrotation Xrotation
						JOINT LeftForeArm
						{
							OFFSET 5.450000 0.000000 0.000000
							CHANNELS 3 Zrotation Yrotation Xrotation
							JOINT LeftHand
							{
								OFFSET 3.450000 0.000000 0.000000
								CHANNELS 3 Zrotation Yrotation Xrotation
								JOINT LeftHandIndex1
								{
									OFFSET 0.750000 0.000000 0.000000
									CHANNELS 3 Zrotation Yrotation Xrotation
									End Site
									{
										OFFSET 0.000000 0.000000 0.000000
									}
								}
							}
						}
					}
				}
				JOINT RightShoulder
				{
					OFFSET 0.000000 0.000000 0.000000
					CHANNELS 3 Zrotation Yrotation Xrotation
					JOINT RightArm
					{
						OFFSET -2.700000 1.550000 -0.730000
						CHANNELS 3 Zrotation Yrotation Xrotation
						JOINT RightForeArm
						{
							OFFSET -5.450000 0.000000 0.000000
							CHANNELS 3 Zrotation Yrotation Xrotation
							JOINT RightHand
							{
								OFFSET -3.450000 0.000000 0.000000
								CHANNELS 3 Zrotation Yrotation Xrotation
								JOINT RightHandIndex1
								{
									OFFSET -0.750000 0.000000 0.000000
									CHANNELS 3 Zrotation Yrotation Xrotation
									End Site
									{
										OFFSET 0.000000 0.000000 0.000000
									}
								}
							}
						}
					}
				}
			}
		}
	}
}
MOTION
Frames: 9
Frame Time: 0.016667
0.979890 16.361610 -1.463780 0.467229 -18.787437 -7.980538 -15.314465 13.151242 3.595411 7.350014 -8.579618 -20.245338 -6.390695 12.748212 52.264025 0.253170 10.244191 1.199830 0.415220 0.039350 0.052740 18.307541 -8.681662 4.112346 -8.278575 5.524066 -47.932451 3.502113 -8.674888 40.009208 -0.621297 -5.403645 2.787145 0.029870 0.440520 0.121800 -3.328465 -4.617310 -8.550365 8.326067 -11.422963 40.334537 -5.190294 -8.074804 -1.181058 3.200509 -10.484954 -12.005404 -28.493414 16.370492 35.490449 -6.421950 6.792600 -19.440650 -27.780007 -15.379852 3.139558 -41.869491 -10.688189 -9.278578 -4.215975 -37.426825 -2.491538 -3.420694 2.677384 1.039050 0.098600 -0.038240 0.371830 22.270986 18.990732 9.027837 42.170770 -0.842300 -16.371641 44.665678 53.740990 14.569677 1.639707 -1.363390 -0.445020 0.598540 0.122380 -0.290250 
0.991370 16.345530 -1.441170 0.141225 -19.753665 -9.150966 -15.258503 13.094826 3.395786 7.430346 -7.608113 -18.759687 -6.135660 13.125763 52.409302 0.248399 10.318348 1.157320 0.445870 0.065380 0.096660 18.368055 -8.640888 4.368827 -9.657845 6.899281 -48.172781 5.016653 -9.985917 44.251918 -0.813407 -6.288486 2.480117 0.052670 0.403120 0.106080 -3.516411 -4.308167 -8.590414 10.263137 -11.509648 40.907289 -6.033147 -7.629585 -1.963676 3.187874 -10.144741 -12.522339 -29.335360 17.612959 38.869658 -6.016530 6.908030 -18.901170 -30.488270 -17.047673 3.776210 -40.222648 -9.130473 -7.699353 -2.985342 -29.227022 -2.322887 -3.417653 2.605276 1.074440 0.071510 -0.013540 0.354260 24.874294 20.532419 8.934288 42.350800 0.606656 -16.265543 43.429706 52.402912 13.515815 1.640967 -1.321044 -0.451350 0.612580 0.116190 -0.313180 
0.999860 16.327300 -1.370000 -0.709014 -21.283463 -12.379039 -15.182184 13.186196 2.998709 8.234277 -5.624835 -14.817592 -4.887802 13.683152 53.388815 0.290350 10.538348 1.059235 0.466810 0.064650 0.185200 18.424811 -8.660733 4.654010 -12.385794 9.185975 -46.183565 9.151009 -13.470973 51.422352 -1.263825 -8.049602 1.896966 0.042060 0.300350 0.091950 -3.729423 -3.957389 -8.601605 12.927426 -12.061117 43.273461 -7.671324 -7.488169 -2.539019 3.818528 -9.226288 -13.827962 -29.432254 19.103542 44.906620 -7.919660 7.387630 -20.312510 -33.943002 -19.308816 5.217694 -37.394172 -4.989075 -5.580867 -2.002716 -19.063582 -1.903133 -3.381744 2.461823 1.167800 -0.004280 0.062900 0.298430 26.908171 22.661028 9.114290 43.079700 2.252666 -16.609045 48.064342 55.795466 16.701987 1.676125 -1.268723 -0.453170 0.626060 0.121480 -0.365020 
0.972310 16.290400 -1.305200 -1.648416 -21.575173 -14.490276 -15.149797 13.070546 2.679126 10.168980 -3.762612 -12.832938 -4.319277 15.094432 55.099909 0.404456 11.019777 0.874750 0.504310 0.093870 0.281370 18.489512 -8.470799 5.003727 -16.305446 11.676932 -44.632307 16.205226 -19.187892 57.243598 -1.843258 -10.137643 1.262103 0.052230 0.221870 0.084930 -3.950222 -3.641490 -8.643258 16.545669 -12.741605 42.579741 -9.030725 -7.463873 -0.384765 4.081301 -8.839043 -14.777901 -29.741499 20.704879 49.244127 -9.913080 7.463270 -20.974960 -35.097035 -20.912331 6.844800 -35.845661 -1.071921 -4.560670 -2.417076 -15.293092 -1.667362 -3.345646 2.382344 1.197290 -0.050880 0.114610 0.248470 27.367962 24.485669 8.982697 45.082516 7.144975 -15.459511 53.038793 62.287681 22.061072 1.749455 -1.239621 -0.431900 0.637200 0.116140 -0.393850 
0.932990 16.252510 -1.242080 -2.204755 -21.963036 -16.230292 -15.132446 13.064671 2.330048 11.207652 -1.602853 -11.545902 -1.918167 15.485687 57.076500 0.424863 11.341401 0.749446 0.484940 0.048890 0.293530 18.523634 -8.329105 5.351937 -19.849579 14.222708 -42.850204 22.641859 -25.290338 62.177452 -2.408358 -12.131139 0.741623 0.046730 0.216650 0.093110 -4.082856 -3.441687 -8.647697 19.640102 -12.070419 40.599470 -9.534845 -6.598244 2.944357 4.379445 -8.472018 -15.753641 -28.829238 21.646710 53.204316 -12.111680 7.454170 -19.577330 -34.722866 -22.308212 8.517466 -35.041986 2.483193 -4.491538 -2.832373 -15.899737 -1.647445 -3.352491 2.344342 1.220670 -0.031560 0.104620 0.211320 26.383655 26.707845 9.280827 46.925056 13.437447 -12.857783 56.730148 70.816517 28.576797 1.777822 -1.176847 -0.454080 0.648160 0.162430 -0.426530 
0.897950 16.234650 -1.214140 -2.255110 -21.346457 -18.218630 -15.085297 13.136943 2.079636 11.174411 -0.048263 -10.619737 1.183165 14.889248 59.180234 0.390679 11.509783 0.652089 0.490260 0.011820 0.331390 18.535761 -8.457124 5.464125 -22.308731 15.461874 -38.935830 27.880660 -30.171614 64.285238 -2.791144 -13.337787 0.406779 0.050870 0.171270 0.129110 -4.174353 -3.159837 -8.578181 21.735202 -10.668962 38.803178 -9.675674 -5.494103 7.130652 4.797155 -7.952551 -16.711807 -26.522318 21.276911 57.193553 -13.366610 6.889520 -19.473240 -32.100815 -23.685377 10.152945 -33.505684 5.488959 -5.781654 -5.074487 -21.593753 -1.593619 -3.308760 2.395823 1.274950 -0.041040 0.117840 0.162490 23.046186 29.073846 9.690188 47.548264 20.203715 -10.750546 53.327673 78.334255 30.150020 1.687059 -1.189531 -0.467200 0.615850 0.202370 -0.477330 
0.850480 16.209330 -1.182390 -2.178295 -19.458271 -18.926631 -15.011312 13.088636 1.982383 10.861382 0.595987 -11.672504 3.805558 14.111543 61.540912 0.463496 11.635518 0.623491 0.489820 0.032670 0.310100 18.566587 -8.749235 5.360531 -23.715826 15.260719 -33.801013 30.692956 -33.677453 65.435267 -2.991209 -13.978815 0.294840 0.057220 0.183410 0.095490 -4.315585 -2.698708 -8.481411 23.301998 -8.777432 35.179205 -8.942981 -4.488506 10.756811 4.792781 -7.883133 -17.382734 -25.225724 20.311379 59.590318 -12.769370 5.910390 -17.368280 -26.615836 -23.686855 11.331014 -32.521424 7.530828 -7.383624 -10.780378 -29.076261 -0.642276 -3.288753 2.432032 1.231800 -0.025850 0.090570 0.178580 17.853743 30.135378 9.982503 47.340991 25.485848 -9.546236 42.437845 85.613404 25.027089 1.525747 -1.292629 -0.460200 0.622460 0.184080 -0.461640 
0.762120 16.211700 -1.157640 -1.461753 -17.623830 -19.899571 -15.001808 13.162266 1.956332 10.687602 1.020939 -11.869370 5.227619 13.687855 62.627511 0.294987 11.921458 0.493470 0.269930 -0.277160 0.170980 18.528018 -8.959781 5.180287 -23.999422 14.951341 -28.522364 32.585508 -35.392304 64.935085 -2.937756 -14.110301 0.239132 -0.035860 0.328670 0.077570 -4.234497 -2.631142 -8.457916 21.941273 -6.068009 33.300632 -6.628461 -3.122081 12.276862 4.137035 -7.784217 -17.674853 -24.509145 19.664314 61.920003 -10.455420 4.601910 -15.522930 -22.270328 -23.251894 11.938507 -29.442466 8.803452 -7.501062 -17.819541 -34.524394 1.132200 -3.472610 2.336518 1.317350 0.047710 -0.045930 0.059000 15.064554 30.543101 9.882327 45.129809 28.604113 -10.941437 178.912152 88.594469 168.582301 1.195245 -0.783486 -0.634080 0.697300 0.420080 -0.530710 
0.664170 16.211380 -1.108230 -0.103031 -16.485315 -19.933701 -15.056889 13.256647 2.028379 10.482866 1.281695 -12.015181 4.726570 14.298906 62.587804 0.266747 12.061230 0.432525 0.235900 -0.385070 0.177760 18.442578 -9.124480 4.881171 -23.640524 14.228185 -24.003239 31.833117 -34.874071 64.417178 -2.838302 -13.888488 0.261461 -0.063880 0.349980 0.046270 -3.997823 -2.768441 -8.436313 18.092384 -3.180561 30.399425 -3.700328 -1.977461 13.307446 3.122913 -7.778077 -17.824743 -25.525070 19.458028 63.983264 -5.626830 2.487210 -14.636630 -17.830545 -21.300723 11.979185 -25.749947 10.089370 -6.895394 -25.542517 -39.089189 4.066706 -3.503517 2.378589 1.372140 0.018070 -0.095930 0.018850 12.795849 28.750981 9.604505 42.069159 33.476736 -0.172477 -99.387498 77.336437 -88.902740 1.528436 5.426258 -0.700970 0.704240 0.463360 -0.569780 
